<svg id="e6b60f95-bda5-4c8c-b511-2789afaf231a" data-name="Layer 1" xmlns="http://www.w3.org/2000/svg" fill="white" viewBox="0 0 166.71 36.37"><path d="M60.75,109.24c-6.38-2.38-26.51,3.41-12-3.22-.53-.65-1.1,1.11-1.8.69,3.2-4.53,1.07-12.42,1.57-18,.32-6.17,2.56-14.14-7-13C42.47,74,49.08,75.64,52,75c3.21.2,7.26-1.17,10.21-.33-3,1-8.07,1.09-6.07,6.59-1.21,4.61.35,8.8-.51,13.2.28,1.41-.1,2.42.14,3.72.94-.53,3.51-.33,1.61.51.33-.22.49-.47,0-.6-3.14,1.11-.75,2.4-.83,5.48C53.29,109.5,65.93,107.78,60.75,109.24Zm-13-33.49s.13,0,.27,0C48.06,75.57,47.74,75.61,47.74,75.75Zm8.18,31.65c-1.45-2-.93-.6-3.49-.18.29-1.91,2.7-1.52,2.9-3.5-1.75,0-2.65,2.32-4.1,1.8,1-.78,2.49-1.65,3.31-2.21,3.55-5.39-10.28,5.35-3.22,2.39C45.24,109.05,55.21,108.46,55.92,107.4ZM49.81,75.84c.39.3-2,.54-.69,1C49.64,76.43,51.67,75.52,49.81,75.84Zm1.24.32c-.67.28-2.95,1.3-1.29,1.11C47.9,79.33,55,73.91,51.05,76.16ZM54,91c-.47,1.5-4,1.36-1.11.28-2.21,1.64,1.19-.37,2.12-.83-.44-.77-.83-.12-.09-1.33-1.8-.36-9,5.87-3.59,3.82a6.57,6.57,0,0,0-2.07,2.25c-.44,2,2.52-1.25.73.83.15.4-2.25,3.78.28,2.34.8-.23-2.67,3.56.18,2.72,1-1.66,7.42-6.27,1.66-3.36,1.78-1.52,2.95-1.65,2.85-4-1.55.2-1.67.18-.14-.27C55.1,91.92,55.15,91,54,91ZM49.21,75.7c-.3.32.17.24.27,0C49.39,75.75,49.25,75.75,49.21,75.7ZM54.91,99c-3.12.8-8.78,7.36-3.17,4.14C52.3,101.88,56,101.34,54.91,99ZM54,81.09c-1.14.71-2.77,2.57-3.73,2.53.77-.45,6.75-5.06,3.13-3-1.5,0,2.45-.77,1.52-2.3C53,79.87,47.28,83.7,52.52,81c-3,1.16-3.89,4.43-2.3,4.83-1.22,1.44,2.88-2,4.46-2.25,1.47-3-3.24,2-4.55,2,.89-.88,5.79-4.06,3.82-3.45-.48.34-1.3,1-.79.18C54.15,82,56.53,79.91,54,81.09Zm.78,6.25c-2.27.53-6.84,4.21-4.69,4.24C50.21,90,54,89.45,54.82,87.34Zm-3.54-9.66c-.07.57-2.57.84-1.52,1.89C51.76,78.54,56.14,74.74,51.28,77.68Zm2.16,8.56c-2.58.63-.75.12-2.44,1.19,1-2.54,5.54-4.16-.64-1.19-2.45,2.51,1,.28.23,1.52-.69-.12-1.68,2.35-.19,1.51.49-.25.12-.29,1.2-1C50.8,89.49,56.45,84.41,53.44,86.24Zm-.51-10.35c-.43.59-4.14,2.38-2.76,2.3C50.07,77.65,54.5,75.67,52.93,75.89ZM49.71,88.22c-.07.28.25.18.33,0C49.9,88.26,49.85,88.17,49.71,88.22ZM54,77.68c-1.34.56-4.43,1.59-4.14,4C50.84,81,56.3,75.86,54,77.68ZM50.4,93.23c-.12-.18-.22-.29-.27,0C49.36,93.33,51,92,50.4,93.23Zm.28,5.2c-.7.07-.23-.56.14-.32C50.73,98.15,50.73,98.34,50.68,98.43ZM51,95.67c-.29.64-.79.57-.5,0C51,95.62,52.15,95.27,51,95.67Zm3.82,1.79c-1.67,1-2.7,2.77-4.32,3.68C50.68,101.47,55.18,99.08,54.82,97.46ZM50.68,98.8c-.46-.15-.21-.09.09-.19C50.73,98.66,50.68,98.66,50.68,98.8Zm.28-6c-.05.09,0,.14.09.14C50.91,93.28,50.45,92.73,51,92.77Zm-.23-5c0-.23.46-.42.46-.05C51,87.57,51,87.8,50.73,87.76Zm0,4.78c.06-.2.59-.21.19-.18C51.72,91.91,51.55,92.56,50.77,92.54ZM51,90.75c-.33.6.49,0,.69-.19C51.37,90.56,51.23,90.75,51,90.75ZM51,95c-.14-.14.18-.32.46-.28C51.42,95,51.09,94.89,51,95Zm.36-6.3c-.59.48-.19.12.33.23C51.65,88.72,51.42,88.77,51.32,88.68Zm0,9.15c-.15-.12-.25-.18-.18.14C50.49,97.67,52.57,96.78,51.32,97.83Zm-.13.65c0-.1,0-.14,0-.23C51.52,98.24,51.49,98.51,51.19,98.48ZM51.46,93c-.09-.1-.27-.23-.18-.33S51.57,92.81,51.46,93Zm0-12.52c.19,0,.37,0,.32-.23A.37.37,0,0,0,51.46,80.44Zm.32,14.63c.36.21-.63.45-.09-.14C52.85,94.41,53,94.55,51.78,95.07Zm-.09,3.13s-.14,0-.23,0C51.54,98,51.83,98,51.69,98.2Zm0-5.43c-.18-.54,0-.13.41-.23C52.06,92.73,51.83,92.73,51.65,92.77Zm-.1-2.48c-.09.33.44.16.56-.05C52,90.1,51.78,90.2,51.55,90.29Zm.19-6.58c-.09-.14.14-.28.27-.32C52,83.62,51.88,83.62,51.74,83.71Zm.27-.37c0-.28.28-.28.42-.41C52.63,83.24,52.22,83.21,52,83.34Zm.05,13.76a.5.5,0,0,1,.41-.42C52.29,96.82,52.24,97,52.06,97.1Zm.41-17.44c0,.14-.32,0-.27.23C52.44,79.93,52.62,79.81,52.47,79.66Zm2.3,4.51c-.57.63-1.8,1.27-2.3,2.16C53.34,85.66,55.38,85.52,54.77,84.17ZM52.57,81c0-.29.2-.28.32-.14C52.84,81,52.7,81,52.57,81ZM53,93.46c-.54,0-.2-.29.09-.32C53.16,93.32,53.07,93.37,53,93.46Zm-.33.88c.14,0,.33-.1.28.13S52.75,94.52,52.7,94.34Zm.37-3.13c-.3.2-.36-.48,0-.23C52.92,90.62,53.2,90.78,53.07,91.21Zm-.14-13.3c.23,0,.23-.14.37-.23C53,77.64,52.93,77.73,52.93,77.91Zm.19,12.84c0-.28.42-.13.41.09C53.35,90.7,53.3,90.79,53.12,90.75Zm0,3.54c.1-.32.24-.58.41-.14C53.35,94.15,53.35,94.34,53.12,94.29Zm.78-3.73c-.8,0-.06-.1.23-.41C54.42,90.48,53.81,90.14,53.9,90.56Zm-.41,13.21c0-.14.27,0,.18.18S53.62,103.77,53.49,103.77Zm.27-16.89c-.67.83,1,0,1.11-.41C54.36,86.28,54.27,86.93,53.76,86.88Zm.05,8.88s0-.14,0-.23C54,95.49,54,95.85,53.81,95.76Zm.64,9.85c-.27-.23-.77.07-.23.18C53.3,106.82,56.75,103.85,54.45,105.61ZM54,95.35a.67.67,0,0,1,.51-.09C54.5,95.44,54.18,95.35,54,95.35Zm.14-2.95c-.09-.23.18-.09.23-.23C54.45,92.22,54.27,92.4,54.13,92.4Zm.64-4.23c-.21.12-.52.18-.64.6C54.42,88.7,55.05,88.46,54.77,88.17Zm.6-12.65a4.19,4.19,0,0,1-1,1.2C55,76.54,56.79,75.42,55.37,75.52Zm-.87,26a.68.68,0,0,0,.73-.51C55,100.82,54.5,101.1,54.5,101.47Zm.73,1.38c-.31.18-.56.17-.64.64C55,103.55,55.64,103.24,55.23,102.85Zm1.52-3.32c-1,.1.55-.74.42-.27A.39.39,0,0,0,56.75,99.53Zm.32-.59c0-.19.14-.23.37-.23C57.4,98.89,57.17,98.89,57.07,98.94Z" transform="translate(-41.52 -74.02)"/><path d="M103.58,93.74c-9,21-18.87,13.89-36.57,15,3.63,0,6.75-2.64,5.38-5.71.23.85-1.36.46-1-.64.89.5,1.5-1.9.28-1.94,1.19,1.34-1.75.1-.09-.73,2.27-4.52,0-10.81.14-15.92,1.39,0,.35-2.25,1-3.45-.43-.4-1.1.9-1.43.05.72-.58,1.94-3.61-.46-3.09-13.52-3.2,3.59-2,9.25-2,10.16-1.6,19.3,3.83,21.44,10-1.23-.49-.27.73.09,1.75-1.41.56,1.4.93.18,1.61-.36,1.52.62,3.95.65,4.78C102.9,93.36,103.68,92.15,103.58,93.74Zm-37-18.4c0,.18.14.09.23.09S66.64,75.29,66.59,75.34ZM71.75,100c0,.14,0,.19.09.23C72,100.08,72,100,71.75,100Zm1.51-14.12c-.16.1-.07.24-.13.32C72.08,86.29,73.86,86.67,73.26,85.87ZM72.8,76.3c.34,0,1,.13,1.06-.37A1.47,1.47,0,0,0,72.8,76.3Zm.46,10.58c-.36-1-.56,1.74.33.23C74.11,87.67,73.83,86.58,73.26,86.88Zm5.43-4.55c-.92-.1-6.39,1.35-5.29,2.76C74.67,83.66,77.17,84.29,78.69,82.33Zm-.32,5.43c-1.56.55-2.33,1.38-4,1.15-.11.41.22.84-.65.73-1.72.43.1,3.07-.69,1.43C75.07,89.34,78.36,89.94,78.37,87.76ZM77.59,87c2.51-1.53-2.63.18-4.6,1.75,1.63.63,3.05-1.29,3.86-1.2C76.79,86.63,80,88.05,77.59,87ZM73,77.45c.23,0,.51-.18.46-.32C73.31,77.18,73,77.08,73,77.45Zm6.08,30.18c-.73-2.2-1.66-.4-2.9.09-1.39-1.48,1.1-1.21,1.24-1.47-1.18.46.37-1.74-.37-.55-1,0-1.28.68-2.53,1C70.37,108.79,79.68,107.82,79.11,107.63Zm-6-1.33c.11.12.21.1.27-.09C73.26,106.16,73.13,106.16,73.13,106.3Zm4.74-15.74c-.47,1.26-3.24,1.37-4.7,2.72.23,1.12.52,0,1.06,0C74.09,92.41,78.77,92.48,77.87,90.56Zm-4.7,15.92c0,.19.32.23.32,0C73.36,106.53,73.36,106.48,73.17,106.48Zm4.56-25.67c0-1.1-7.23,3.65-3.08,1.66C73.43,82.36,78.75,81.35,77.73,80.81ZM74.46,97.05a12,12,0,0,0-1.15.69C73.13,98.78,75.17,97.16,74.46,97.05ZM78.51,95c.64-1.74,0-2.6-.92-1.2.9,0,.54.23-.14.1-1,1.28-3.14.77-4,2.71,2.22-.42,3.3-1.54,4.74-1.79C78.38,95.85,79.58,94.73,78.51,95ZM74,105.38c-.21.46-1,.76,0,.64C73.79,105.69,75.26,105.14,74,105.38Zm3-25.49c.64-.89-.45.08-.74-.37-.11-.65,0,.7-.69.09,1,1.08-.34.18-1.06.88.54.1.6-.27.42.32-.58-.34-1.31-.54-.51,0-1,.56-.87.64-.18.82C74.38,80.77,78.1,80,76.9,79.89Zm-3.45,15c.27,0,.37-.09.55-.09C74,94.52,73.45,94.57,73.45,94.84Zm4.88,4.28c-.39-.54-2.17,1.74-3,2.21-2,2-3,2.44,0,3-.36-1.25,1.62-.58,2.76-1.24-.79-.22-1.36-.29-1.48-.1-1.05.08.5-1.06,1.06-1.19-1.27.8-.12.86,0,.41.62.22-.13,1,.82.46-.4,0,.26-.27.14-.6-.31-.06-1.36-.27-.5-.18C77.79,101.25,79.59,100.23,78.33,99.12ZM73.49,81.87c.1,0,.33.23.37,0S73.49,81.64,73.49,81.87Zm1.61,4c-.56.56-1-.19-.32-.6-1.39.06-1.4,1.31-.69.69.87.77.34.61-.5.65C74.35,87.37,75.33,86.78,75.1,85.87ZM74.51,100c.75-.87-1.06,0-1,.83C74.29,100.46,75.94,100.51,74.51,100Zm-.32,4.19c0,.32-.24,0-.42.18C74.07,104.83,75.05,104,74.19,104.18Zm-.28-3.77c-.2-.35.14-.36.41-.37C74.23,100.22,73.91,100.18,73.91,100.41Zm0,1.29c-.09.14.06.28.23.32C74.09,101.88,74.05,101.7,73.91,101.7Zm1-.56c.36-.54-1.84.22-.56.23-.3-.42.26-.1.46,0C74.23,102.51,76.12,100.23,74.88,101.14Zm-1-24.29c.07.11.32.12.32,0C74.05,76.85,74,76.81,73.91,76.85Zm0,3.36c.18.05.37,0,.41-.14A.4.4,0,0,0,73.91,80.21Zm2-1.52c-.06.45-1.4.38-1.94,1.15C74.61,79.67,77.52,78.54,75.89,78.69ZM74,100.78c.14,0,.28,0,.28-.1S74,100.64,74,100.78Zm0-6.4c.19.2,1,.46.6,0C75.43,93.89,74.33,94.15,74,94.38Zm.23-16.84c.14,0,.23-.09.23-.23C74.32,77.36,74.23,77.36,74.23,77.54Zm.09,1.66c.14,0,.37,0,.37-.18A.23.23,0,0,0,74.32,79.2Zm.05,12c.14,0,.23,0,.28-.09C74.51,91.12,74.37,91,74.37,91.21Zm0,14.3c.09.23-.1.28,0,.42C74.65,105.88,74.68,105.38,74.42,105.51Zm.91-1.93c-.92.31-1.23-.1-.09-.14C74.49,103,76.1,102.76,75.33,103.58Zm-.68.88a.35.35,0,0,0,.68,0C75.2,104.27,74.88,104.36,74.65,104.46Zm0-18.54c.19,0,.28-.33.09-.28A.44.44,0,0,0,74.69,85.92Zm.69,13.48c-.54.19-.24-.1-.55-.23C74.73,100,75.29,100.05,75.38,99.4ZM74.92,106c-.09.18.28.23.37.09A.63.63,0,0,1,74.92,106Zm2.35-13.16c-.4.29-2.87.8-2,1.33A6.72,6.72,0,0,0,77.27,92.82Zm-.78-7.36c-.88-.69.35-1.39-1-.65-.2.68-.27.23.09.6.42-.24,0-.9.55,0-.21.46-1,0-1.19-.14,0,.63,1.11.38.36.92C76,85.84,76.81,86.41,76.49,85.46Zm-.93,5.47c-.54-.48-.43.2-.09.37C75.33,91.05,75.61,91.21,75.56,90.93Zm-.32,7.87c-.31.33.61.34.6,0C75.56,99,75.52,98.75,75.24,98.8Zm.51,1c-.31.07-.36.45-.46.69C75.55,100.37,76.06,100.08,75.75,99.81Zm-.42-15.69c0,.33.15.19.42.19C75.7,84.12,75.47,84.17,75.33,84.12Zm2.35,14.49c-1.53-1-.93.17-.09.28-1,.51-1.39-.07-1.66.41C74.05,100.36,80,98.3,77.68,98.61Zm-2.16,1.89c0,.23.27.23.23,0Zm.27,5.34a.4.4,0,0,0-.23,0C75.52,106.05,75.88,106,75.79,105.84Zm0-1.8c.09.32,0,.09-.23.28C75.64,105.2,76.59,104.37,75.84,104Zm-.14-2.85c0-.14.14-.14.19-.28C76.08,101,75.83,101.3,75.7,101.19Zm.19-10.44c-.21.43.43.3.41,0C76.12,90.93,76.07,90.89,75.89,90.75Zm0,9.43c-.15.52.35.07.46-.14Zm0,3.45c-.09.18.37.23.32,0S76,103.58,76,103.63ZM76.07,81c.14-.05.28-.05.28-.23A.3.3,0,0,0,76.07,81Zm0,22.17c0,.14.05.23.18.23S76.21,103.21,76.07,103.21Zm.14-19.09c-.11.34.32.27.41.09A3.19,3.19,0,0,1,76.21,84.12Zm0,6.17c0,.18.09.23.28.23C76.53,90.33,76.3,90.33,76.21,90.29Zm.23,12.28c-.25,0-.24-.34,0-.28A.49.49,0,0,0,76.44,102.57ZM77,84.77c-.45-.09-.36-.15-.69.18.89.19.15.25.42.78C77.18,85.93,77.46,85.94,77,84.77Zm-.55,13.89c-.4.31.29.49.37.18C76.58,98.89,76.58,98.75,76.44,98.66Zm.74,5.52c-.8.3-.13-.37-.51-.55-.47.37-.27.25,0,.73C75.67,105.13,77.29,104.63,77.18,104.18Zm-.65-22.31a.21.21,0,1,0,.42,0C76.72,81.91,76.76,82,76.53,81.87Zm.09,8.83c0,.19,0,.23.19.23S76.76,90.66,76.62,90.7Zm0-.18a.17.17,0,0,0,.19-.19C76.72,90.24,76.62,90.38,76.62,90.52Zm.1.64c-.1.19.27.14.27,0S76.85,91.16,76.72,91.16Zm.64-6.72c-.38.29-.66-.5-.51.23C77.22,84.65,77.71,85.34,77.36,84.44Zm-.55,15.92c0-.27.85-1,.64-.41C78.15,99.1,77.5,100.37,76.81,100.36Zm.46-18.49c-.72.34.44.14.41-.28C77.5,81.45,77.08,81.68,77.27,81.87Zm0,8.14c-.74.22-.08.71.42.32C77.5,90.29,77.31,90.15,77.31,90Zm-.23-11c.72.28.68-.42,1.38.23C79.24,77.71,78.14,78.57,77.08,79Zm.6,4.37c-.09.23-.23.41-.41.23C76.66,84,79,83.65,77.68,83.34ZM77.54,104c-.59-.23-.43.35.1.37C77.64,104,77.41,104.18,77.54,104Zm-.23-19.69c0-.23.14,0,.23,0C78.19,83.74,77,84,77.31,84.26Zm0-5.06c0,.68.31.56.79.41C78,79.43,77.87,79.11,77.31,79.2Zm.42,26.18c0,.09-.23,0-.32,0C77.46,106,78.18,105.59,77.73,105.38Zm.41-20.75c-.57-.38-.77,1.49-.23.27C78.55,85,77.86,84.92,78.14,84.63ZM77.54,93c-.29.17.28.56.28.18C77.59,93.23,77.68,93,77.54,93Zm.14,11.5c-.36.78.3.56.83.78C78.53,104.43,79,103.83,77.68,104.46Zm.37-6.81c.06.53-.17.32-.37.09C77.19,98.47,79,98.61,78.05,97.65Zm-.37-8.42c0,.23.19.18.37.18A.24.24,0,0,0,77.68,89.23Zm0-4.79c.21.15.87-.43.64.1C79.08,84,78.1,83.78,77.73,84.44Zm.09,7.46c.14-.05.18-.14.23-.28C77.91,91.62,77.82,91.71,77.82,91.9Zm.09,12c0,.09-.09.09,0,.23C78.2,104.25,78.21,103.92,77.91,104ZM78,81.36c-.31.38.53.32.69-.09C78.42,81.09,78.23,81.41,78,81.36Zm.28,22.13c-.25,0-.54.09-.28.37C78.34,103.81,78.35,103.88,78.28,103.49ZM78.1,90.15c.18.09.55.28.55-.09C78.42,89.92,78.28,90.2,78.1,90.15Zm0,2.81c.09,0,.13.09.23.09C78.46,92.86,78.1,92.86,78.1,93Zm.09,6.34c-.19,0,0-.18-.09-.23C78.28,98.92,78.24,99.16,78.19,99.3Zm.09-10.39c-.25,0-.07.18,0,.27A.17.17,0,0,0,78.28,88.91Zm-.14,1.7c0,.28.28.32.51.23C78.56,90.7,78.33,90.47,78.14,90.61Zm0,8.92c0-.13.27-.09.27,0C78.28,99.63,78.33,99.53,78.19,99.53Zm.32,2.12c-.05.09-.32-.05-.23.18C78.51,101.88,78.94,101.86,78.51,101.65Zm-.23-4.83c0,.14-.09.37.09.32S78.49,96.74,78.28,96.82Zm0-12.24c-.06.25.2.27.18,0Zm0,12.93c0,.14.14.14.28.14S78.42,97.51,78.28,97.51Zm.09-5.57c0,.14-.14.14,0,.23C78.58,92.21,78.62,91.9,78.37,91.94Zm.14-2.67c-.05.1-.23.19-.14.33S78.87,89.33,78.51,89.27ZM79,75.89c.27.09.27.5.46.73C79.81,76.1,79.71,75.7,79,75.89Zm15.36,12.6c-.71-2.69-.61-7.56-3.91-10.35C86.31,73.24,75.41,77.05,80.3,82c-1.65,1.07-1.15,3.92-.09,4.09-.74.54-1.29,1.74-.5,1.38,1.14.33-1.24,1.81.27,5-1.12,1.27.19,3.79-.37,5.38.16-.23,1.6-.62,1.43.23-1-.3-1.85,1.36-1.61,3.64,2.47,1.09-2.43,3.58,1.2,6.3C93.6,111.8,96.32,97.84,94.38,88.49ZM80.17,97.28c0-.14.09-.14.23-.14S80.3,97.33,80.17,97.28Zm8.18-21.12c.1.19-.18.1-.13.28C88.7,76.31,88.92,76.17,88.35,76.16Zm.6.28c.23,0,.37.18.6,0C89.37,76.44,89,76.26,89,76.44Zm1.8.83c.09.09.32.09.27-.09S90.79,77.18,90.75,77.27Zm1.19.83c.19,0,.28-.33,0-.28A.29.29,0,0,0,91.94,78.1Zm1.89-.19c0,.6-.83.32-.92.74C91.34,79.5,95.19,78.35,93.83,77.91Zm.55,1.2c1-1.72-1.94,1.22-.87.92C93.55,80.8,96.45,78,94.38,79.11Zm-.46,26c-.12.33-.92.24-.69.73C93.36,105.67,94.18,105.32,93.92,105.15Zm-.64-27.24c.18.09.41-.09.55-.18C93.65,77.59,93.28,77.73,93.28,77.91Zm1,2.85c-.46.13.06.47.19.14C94.29,81,94.38,80.72,94.24,80.76Zm3.64.79c-.5.73-3.78.73-3.45,2.62C95.17,83.55,99.38,82.42,97.88,81.55ZM97,101.42a6.56,6.56,0,0,0-2.67,2C95.56,103.06,99.94,99.6,97,101.42ZM94.29,105c.09,0,.41-.14.51-.23C94.61,104.59,94.38,104.92,94.29,105Zm.09-22.82c0,.25.37.19.37,0A.29.29,0,0,0,94.38,82.19Zm.42-1.79c-.5,0,.12.55.27.13C95,80.49,94.8,80.53,94.8,80.4Zm3.72,2.71c-.44.75-4.79,1.33-3.4,2.58C96.06,84.81,100.36,83.11,98.52,83.11ZM95.39,101c-.36-.37-.73,0-.69.51C95.24,101.42,95.4,101.57,95.39,101ZM95.21,80c-.09.09,0,.32-.28.27C95,80.72,95.87,80.19,95.21,80Zm4.6,4.69c-.19-1.9-2.59.52-3.68.92.23-.57-.3-.25-.14.28.88-.15.23.58-.41.64C93.07,89.67,100.14,86.24,99.81,84.72ZM99.53,96c0-.1-6.09,4.11-3.82,4.28C95.26,99.57,104,95.08,99.53,96ZM97,88.4a5.86,5.86,0,0,0-1.65.87C95.89,89,97.1,88.84,97,88.4Zm4.24,5.38c-2,.86-4.4,1.92-5.85,3.68C96,97.45,100.66,95.47,101.24,93.78Zm-2.63-.32c-.65.1-3.26,1.22-3,2.16C97.93,94.74,103.7,91,98.61,93.46ZM99,91.71c-1.23.46-3.59,1-3.31,2.26C96.56,93.5,99.15,91.93,99,91.71Zm.42-3.17c-.69.82-5.3,2.15-3.32,2.85C97,90.54,102.12,88.57,99.4,88.54ZM96,97.74c-.81,1.06.6.6-.09.69C95.62,98.05,96.73,98.09,96,97.74Zm-.18-18.36c-.15.19.15.24.23.14C95.9,79.52,95.9,79.38,95.81,79.38Zm0,.46c0,.23.22.2.32.1C96,79.89,96,79.8,95.76,79.84Zm.83,22.91c-1,1.14,1.29.35,1.38-.64C97.37,102.2,97.14,102.62,96.59,102.75Zm-.37-2.3c.19,0,.37,0,.37-.18C96.36,100.22,96.36,100.41,96.22,100.45Zm.28-14.72c.14,0,.27.19.32,0C97.24,86.1,96.6,86.13,96.5,85.73Zm.09,12.15c.18,0,.28-.32,0-.32C96.59,97.65,96.45,97.74,96.59,97.88Zm0,2.94c0,.19,0,.19.18.14S96.73,100.82,96.59,100.82Zm.55-3.45c0,.19-.18,0-.23,0C96.82,97.84,97.57,97.47,97.14,97.37Zm0,1.93c.09.33-.19.28-.19.51C97.71,99.63,97.85,99.6,97.19,99.3Zm0-13.57c-.07-.19.21-.26.37-.23C97.46,85.55,97.37,85.69,97.23,85.73Zm.51,12.93s-.12.36-.41.23C97.3,99.69,98.24,98.47,97.74,98.66Zm-.28-1.89c.05.24.42.06.42-.13A1,1,0,0,0,97.46,96.77Zm.05-8.83c-.17.29.25.36.37.09C97.65,88.13,97.65,88,97.51,87.94Zm3.5,1.7c-2.64,1.12-4.79,1.86-.14,1.29C98.7,93.48,102.55,91.72,101,89.64ZM97.6,100c.14,0,.37,0,.37-.18C97.74,99.81,97.69,100,97.6,100Zm.05-3c-.09.09,0,.14,0,.32C97.88,97.33,97.79,97.1,97.65,97.05Zm0,3.27c.14,0,.23,0,.23-.14S97.65,100.18,97.65,100.32Zm.23-14.73a.14.14,0,0,1,.23-.09C98.06,85.59,97.92,85.69,97.88,85.59Zm.14,11c0,.34.28.12.32,0Zm.09,2.76c.14,0,.18-.09.14-.23S98,99.26,98.11,99.35Zm0-2.3c0,.09.37,0,.32-.09S98.06,96.87,98.11,97.05Zm.23-11.41c-.3,0-.2-.43,0-.32C98.29,85.5,98.43,85.5,98.34,85.64Zm1.15,13.71c-.19.53-1-.06-.69.41C97.43,99.87,99.87,100.12,99.49,99.35ZM98.8,85.09c-.16.42-.32.43-.42,0C99.07,84.72,99.81,85.24,98.8,85.09ZM98.43,98.2c0,.18-.14.32.09.32C98.48,98.34,98.66,98.25,98.43,98.2Zm0-10.67c0,.17-.09.26.13.23C98.66,87.57,98.57,87.57,98.48,87.53Zm0,13h.28A.15.15,0,1,0,98.52,100.5Zm.32-2.39c-.09-.14-.23.09-.27.09S98.87,98.28,98.84,98.11Zm0,.37c-.09.23.23.27.19,0C98.94,98.52,98.94,98.48,98.84,98.48Zm0,1.7c0,.18.23.18.23,0C99,100.27,99,100.13,98.89,100.18ZM99,87.25a.19.19,0,1,0,.37,0C99.26,87.2,99.12,87.25,99,87.25Zm.46,10.81c0-.44-.26,0,0,.19C99.8,98.28,100,97.84,99.44,98.06Zm.46-.37c.14.1-.09.23,0,.28S100,97.52,99.9,97.69ZM101,93.37c0,.41.34.17.37-.09C101.14,93.19,101.14,93.37,101,93.37Zm1.24.46c-.18,0-.18.18-.27.32C102.25,94.22,102.32,94,102.2,93.83Z" transform="translate(-41.52 -74.02)"/><path d="M143.88,89.32c-.42,10.2-5.25,20.22-15.46,21.07-10.62-.53-18.88-10.4-16.19-20.56,0-13.59,20.73-20,27.55-10.45.74.5.7,1.93,1.47,1.34-.88-.46-.17-.73.6-.42-1.51,2.07,1.25,3.06.88,4.79,1.45.14,0,1.67.87,2.34C142.9,88.28,145,89,143.88,89.32Zm-25.12-.78c-.66.74-1.54-.38-1.43.92,1.33-.38.11.08.37.55a13.94,13.94,0,0,0-4.42,2.53c-.67.68-1.38,3.47.28,3.45-1.24,1.78.12,2.54,1.1,1.06,1-.16.61-.5,1.57-1-.43,1-4.54,4.66-1.38,3,.19-.27,4.48-2.31,3.5-2.62.11-.54.85-2.36-.28-1-.36-.09-2.2,1-1.57.13,1-.42,2.74-1,2-2.11.06-.79-.3.48-.37-.28-.62.06-.2.49.14.55-.19.13-.59.3-.37,0-3,.62-1.93.36.23-.92,1.5-1.78-1.63-.12-3,.87.07-1.14,3.83-1.59,2.58-2.62C119,91.3,119,90,118.76,88.54ZM120,81c0,.44-.64.08-.46.51-.59.34-1.92.46-.82-.46.51.95.24-.4.87-.6-.16.53.88.22.18,0,.21-1.29-4.7,2.92-4.83,4a6.92,6.92,0,0,1,2.9-2c1.69-1.18-.86,1.09-1.42,1.15.53,0-2,1.39-.19.87-1.49,1.67-2.93.2-2.53,3.36.9-.72-1.08,2-1,2.67,0,.84.32-.48,1.47.14-1.07.79-2.27,1.66-.88,1.19.28-.17,1.37-1.71,2.26-1.65-.45.63-1.22.83.14.55,0-1.07.84-1.45,1.47-1.15-.79-.72.52-2.07.64-1.06,1.38-.89-1.58-.92.83-1.11-.85,1.36,1.72-1.77-.28-1.1,0,.54-.49.34-.64,0,4.32-2.33-1.35-.2.37-1.34.42-.6,3.36-1.71,1.93-2.62-1.15,1,1.43-1.26,1.7-2.39C121,80.21,120.55,81,120,81Zm-5.79,14.54c-.23.19-1.12.3-.51.09C113.5,95.54,114.49,94.75,114.16,95.53Zm-.51,2.81c.14,0,.23,0,.23-.19S113.65,98.2,113.65,98.34Zm.19,0c-.37.24.14.37.13.05A.17.17,0,0,1,113.84,98.38Zm-.14-8c.22-.12.81-.85,1.06-.18C114.43,90.24,114.11,90.66,113.7,90.38Zm4.55,7.91c.81-1.63-.24.1-1.61.09-.11.53,1.49.54,0,.56-1,1.1-4.39,2.3-1.61,2.2C115.48,99.92,120,98.39,118.25,98.29ZM113.93,87c.14,0,.23,0,.18.18C114,87.2,113.88,87.16,113.93,87Zm3.91-1c-1.3.36-2.25,2-.46.69,0-.52.68.16.09.56-.6-.21-.72-.29-.23.18-.61,0-.4-.07-.6.65-.5,0-.31-.8-.73-.14.68.83-.33-.4-.6.64-.93-.74.82,1.14-.28.46,0-.2-2-.17,0-1-1.24-1,2.15-1.32.55-.82,1.53,1.12,0-1.22.79-.6C116.46,86,117.94,85.19,117.84,86.05Zm-3.41,11.37c-.07.39-.3.44-.09.83C114.53,97.92,115.19,97.4,114.43,97.42Zm0-9.8c-.13,0,0-.23-.13-.23C114.49,87.14,114.66,87.4,114.43,87.62Zm-.13,2.16c0-.14,0-.18.18-.18S114.43,89.83,114.3,89.78Zm.27,1.24c0,.1-.18,0-.14.19C114.69,91.26,114.87,91.12,114.57,91Zm-.09,3c.18,0,.09.18.09.27A.17.17,0,0,1,114.48,94Zm0,1.65c-.07-.33.16-.27.41-.23C114.85,95.58,114.66,95.62,114.48,95.62Zm.55-.23c-.21-.25-.71-.1-.27-.5C115,95.19,115.24,94.84,115,95.39Zm-.27,4.24c0,.13-.19.09-.14.23C114.85,100.08,115,99.61,114.76,99.63Zm-.14,1.7c-.05.23.37.18.27,0C114.76,101.24,114.76,101.37,114.62,101.33Zm.92-11.73c-.68-.14-.46.1-.65.55C114.14,89.66,115.93,88.89,115.54,89.6Zm-.78,2.48H115C115,92.27,114.66,92.36,114.76,92.08Zm0,1.93c-.05-.13.23-.23.32-.13S114.89,94.15,114.76,94Zm10.07,14.63c-1.42.06-2.09-2.89-3.45-2.21.17-.27.22-2.07-1-1.7,0-1.56-.14-.74-1.06-1.28.89,0,.7-.41.37-1-.34,0-1.05.64-1,.09.38,0,.94-.93.14-.92,1.36-1.64-.76-.86-1.1,0-1,.16,1-1.53,1-1.33.65-1.6-3.42,1.54-4,2,.48,1.35,2.23-1.21,2.53-.46-.32.63-.24,0-.69.56-.74-.44-1.16,1-.78.55,1.3.15-1.22,1.6,1.43,1,.11,1.52.39-.23,1,.18.34-.56.86.79,0,.1-.55.71-.91,1.91,1,1.79-.3-.2.09-.6.37-.64,0-.34-.16-.28.55-.65-.29,1-1.74,2.46.42,1.43.86.32.17.31-.56.78C121.13,107.17,123.91,109.42,124.83,108.64Zm-10-13.84c.11-.32.51-.24.69-.42C115.79,94.69,115.18,94.71,114.85,94.8Zm.27-6.81c-.26,0-.16-.26.1-.23A.33.33,0,0,0,115.12,88Zm0-1.52a1.12,1.12,0,0,0,.32-.55C115.73,86,115.33,86.46,115.08,86.47Zm.32,8.83c-.32,0-.18-.64.18-.5C115.45,95,115.31,95.07,115.4,95.3Zm0-10.3c.18,0,.37,0,.37-.23C115.54,84.77,115.4,84.81,115.4,85Zm.32,4.09c-.59-.57.46-.86.74-.09C116.32,89,115.86,88.77,115.72,89.09Zm-.14,2.72c.1-.33.42-.19.6,0C116,91.94,115.81,91.85,115.58,91.81Zm.42,7a.59.59,0,0,1-.42.23C115.69,99.3,116.36,99,116,98.84Zm-.32-13.15h.23C115.86,85.82,115.63,86,115.68,85.69Zm0,5.47c.09,0,.09-.18.23-.18S115.77,91.25,115.68,91.16Zm0,6.44c.09-.23.64-.73.82-.37C116,97.1,116.09,97.74,115.68,97.6Zm.13,3.45c0,.18.41.23.37,0C116,101,116,101.14,115.81,101.05Zm0,2.3c.18,0,.37,0,.37-.23C116,103.08,115.91,103.12,115.86,103.35Zm0-14c0-.14,0-.18.13-.18S116,89.32,115.91,89.32Zm.18-4c0-.23.28-.23.23,0Zm0,4.78c.26.19.65-.18.55-.46C116.37,89.73,116.27,89.92,116.09,90.1Zm.83,10c-.09.23-.65-.09-.83.19C116.44,100.47,117.43,100.31,116.92,100.13Zm-.55-7.59c0-.14.09-.14.18-.14S116.5,92.59,116.37,92.54Zm.09-7.22c-.19-.14,0-.23,0-.32C116.72,85.13,116.6,85.19,116.46,85.32Zm0,17.76c-.08-.43.43-.3.41-.83C117.36,102.5,117,102.87,116.46,103.08Zm.55-6c-.31-.1-.66.22-.51-.18C117.11,96.81,117.6,96.43,117,97.05Zm-.51-8.33c-.13-.46.25-.29.46-.09C117,88.86,116.78,88.68,116.5,88.72Zm.19-4.14c-.14,0,.09-.18,0-.37C117,84.42,116.83,84.53,116.69,84.58Zm0-2.67c0,.14,0,.46.14.46C116.69,82.11,117.19,81.85,116.73,81.91Zm0,12.93c0-.09.18,0,.14-.23C117.25,94.72,117,95.1,116.78,94.84Zm.14-3.36c0-.26.3-.2.37,0C117.19,91.48,117,91.58,116.92,91.48Zm0,3c-.13-.14.19-.42.37-.23C117.19,94.24,117.15,94.43,117,94.43Zm0-10c.29-.08.09.22.28.19C117.19,84.81,116.92,84.63,117,84.44Zm0,8.79h.23C117.24,93.42,117,93.42,117,93.23Zm0,3.31c.32-.51.86.29,1.06-.23C118.84,96.72,117.3,96.65,117,96.54ZM117,98c.14,0,.23.09.37,0C117.47,97.74,117.06,97.79,117,98Zm.69-13.8c-.1-.27-.11-.45-.41-.32C117.46,83.58,118.06,83.86,117.7,84.17ZM117.61,104c-.43,0-.21-.24-.19-.51C118,103.5,117.67,103.67,117.61,104Zm-.28-12.7c0-.18.14-.18.28-.18S117.47,91.25,117.33,91.3Zm.46,3.27c-.28-.06-.53-.75-.23-.28C118.14,94,118.28,94.14,117.79,94.57Zm-.23-5.66c0,.18.09.18,0,.32C117,89.3,117.84,88.55,117.56,88.91Zm-.14-7c-.13-.27.33-.36.42-.59C118,81.73,117.9,82,117.42,81.91Zm.33-1.61c.35-.59-.41-.33,0,.28C118,80.81,118.33,80.21,117.75,80.3Zm-.19,19.56c-.09.18.32.18.23,0S117.56,99.81,117.56,99.86Zm.28,2.11c.37.09-.23.51-.23.14C117.75,102.11,117.88,102.15,117.84,102Zm.46,1.47c-.79.31-.65-.54-.14-.23C117.92,102.84,118.94,102.79,118.3,103.44Zm-.55-6.39c.07-.19.23-.18.27,0C117.88,97.1,117.79,97.1,117.75,97.05Zm0,1.29c0-.09,0-.14,0-.23C118,98.06,117.93,98.43,117.75,98.34ZM117.88,84c.1-.09.1-.32.28-.32S118.2,84.05,117.88,84Zm.05,15.55c.18,0,.6.19.55-.23A.56.56,0,0,0,117.93,99.53Zm.09-.46c0,.1.23.1.23,0S118,99,118,99.07Zm.14-9.75c.18.05.23.41,0,.41C118.21,89.55,118,89.46,118.16,89.32Zm4.37-12c-1,.84-2.39,1.21-3,2,1.51-2-.65-.72-1.28.33.46.13.8-.8,1.05.09C120.29,78.87,125.36,76.43,122.53,77.36ZM118.67,88c-.1.09-.23.14-.28.32C118.63,88.29,118.84,88.17,118.67,88Zm-.19-8.15c0,.23.37.14.32,0S118.62,80,118.48,79.84Zm.14,3.82a.35.35,0,0,1,.14-.55C119.08,83.24,119,83.59,118.62,83.66Zm0,15.69c-.09.26.36.19.46.14C118.9,99.4,118.9,99.26,118.62,99.35Zm.09,4.74c0-.19.42-.37.42-.09C118.9,103.9,118.94,104,118.71,104.09Zm.37-.42c-.14,0-.32-.09-.23.14C118.48,103.71,119.39,103.24,119.08,103.67Zm.23-20.51a1.52,1.52,0,0,1-.46-.1C118.9,82.75,119.73,82.71,119.31,83.16Zm-.32-4.7c0,.1-.09.23.09.23C119,78.6,119.13,78.42,119,78.46Zm17.25,9.8c.32-2.41-2.31-.38-.46-2.71-2.52-11.08-9.86-13.24-14-3.27-.26.72-.58,2.18-1.34,2.12-.21.71,1.43.44.51.64-1.93,1.9,1.17,1.07-.6,2-1.84,3.7-.17,7.86-.6,10.35C119.92,111.7,138.15,115.7,136.24,88.26ZM120.37,78.1c-.05.18.14.09.18.13C120.79,77.78,120.87,78,120.37,78.1Zm.28,2.07c0-.28.41.23.45-.1C120.92,80,120.51,79.89,120.65,80.17Zm.73-.74a.26.26,0,0,1-.23.09C121.2,79.77,121.53,79.66,121.38,79.43Zm.09,27.7c-.24,0-.15-.35-.09-.46C121.72,106.66,121.58,107,121.47,107.13Zm7.78,2.43c0-.1.41.23.41-.09C129.48,109.43,129.16,109.38,129.25,109.56Zm.55-.23c-.06.19.18.17.23,0S129.89,109.29,129.8,109.33Zm.51,0c.18,0,.32,0,.27-.23C130.4,109.1,130.31,109.15,130.31,109.33Zm1.33-.55c.09.23.37-.09.23-.14C131.87,108.78,131.55,108.6,131.64,108.78Zm.09-.37c.19,0,.37,0,.37-.13A.31.31,0,0,0,131.73,108.41Zm1.11-.69c-.1.48-.08.57-.6.42C131.88,109.26,133.41,108.08,132.84,107.72Zm-.69-31.6c0,.09.36.23.18.55C133.5,77,133.29,75.69,132.15,76.12Zm.92,31.42c.11.82.5.43,1,0C133.85,107.26,133.39,107.68,133.07,107.54Zm.55-31.24c.43.39.14.59-.46.6C133,77.66,135.28,76.58,133.62,76.3Zm.18,2.16c-.11,0-.14,0-.18.14C133.83,78.64,133.86,78.64,133.8,78.46Zm0,.69c-.23.18,0,.39.13.19C133.8,79.29,133.85,79.15,133.76,79.15Zm2.43-1.05c-.64-2-3.63,1.11-1.47,1.61C134.55,79.31,138,77.76,136.19,78.1ZM134,107.22c0,.18.23.27.32.18A.19.19,0,0,0,134,107.22Zm1.38-29.12c.69,0-1.5.83-1.19.27C134.46,78.53,136.29,77.19,135.41,78.1Zm.6,27.28c-.3.85-.6.8-1.47,1.24C135,107.67,137,105.76,136,105.38Zm-.74-.46c-1.17-.48.44.6-.41.55C135.37,106,135.4,105.22,135.27,104.92Zm1.66-25.86c-.78-.56-.63.8-1.84.65.23.81.5.72-.23,1.47,1.11.08,3.68-1.69,2.21-1.7C138.37,79.23,137.86,78.1,136.93,79.06Zm4.65,16.43C139,97.05,136,97,136.19,100.78c-1.52,2.12,4.42-3,2.77-.56-1.16,1.21-2.57,1.07-3.64,3.59.67-.46,3-2.92,3.36-2,.59,0,2.24-.53,1.52-1.24-.44-.51,1.07-1,.18-1.15.08.59-1.23-.08-1.47-.09.82,0,1.8,0,.41-.28,1.59-1.41.36.74,1.52,0,.06.64.06-.37-.41-.32.29-.3.69-.24.41.18,1.86-1.19-1.68-.39-.37-1.06C141,98.05,141,96.41,141.58,95.49Zm-6.21,9.29c.18,0,.32-.23.27-.32S135.32,104.55,135.37,104.78Zm.23.37a.11.11,0,0,0,.09.18C135.72,105.2,135.78,105.12,135.6,105.15Zm0-23.6c.23,0-.14.36.13.36C136,81.68,136,81.48,135.6,81.55Zm.09,20.19c-.15.32,0,.62.18.37C135.78,102.06,135.87,101.74,135.69,101.74Zm-.05-19.6A.36.36,0,0,0,136,82C135.87,82,135.69,82,135.64,82.14Zm.09-1.7c-.4-.47.63-.71.14-.32C136.26,80.27,136.13,80.3,135.73,80.44Zm6.44,6.72c.07.11-6.07,4-4.18,2.07.76-1.63,3.52-1.91,3.4-3.91-.74-.49-1-.39,0-.78.21-.56-.32-3.83-1.61-2.4-.21-1,1-1.15-.69-1.7.49,0,.59-.56.09-.64-1.48.46-2.37.7-2.67,2.44-.74-.92.12.43-.78.23-.21,1.19,2.11,1.16,1.84.41-.85.23,1.14-.45,1.79-1.1.43,1.29-1.57,0,.19,1.28-.38.32-1,2-1.11,1.06-.44.51-1,.48-.41,0-1,.31-.61.32-.09.78a2.29,2.29,0,0,0-.88,2.9c-.06-1,1.72-.85,1.43-1.29.47-.53,1.76-.81,1.75-1.33,2.18,1.67-2.92,2.11-3.09,3.86-.31,2.23.7,2.62,1.34,1.2C139.47,89.66,143.26,87.93,142.17,87.16Zm-3.49,15.78c-.33.64,0,.23-.46-.09.15-.33.75,0,.28-.42,1.11-.54-.48,0-1.11,0,.59.41.58-.17.51.64,0-.49.39.07.27.42-.77-.6.17.27-.46,0-1.05,1.29.26-.77-.46-.56-.44,1.46-.15.36-1.47,1,.12.77.54.59.6,0,1,0-.26.72-.19.92C135.79,105.15,139.4,104.65,138.68,102.94ZM136.1,81.22c0,.23.42.46.28.19C136.24,81.59,136.24,81.22,136.1,81.22Zm.74-1.19c-.48-.18-.7.45-.6-.19C136.77,79.77,137.43,79.41,136.84,80Zm3.22,17.53c-.15.74-4,4-3.5,2.16C137.52,99.47,140.51,96.42,140.06,97.56ZM137,84.77c0,.56-.34.2-.46.46C136.88,85.8,137.59,84.58,137,84.77Zm-.37,1c0,.09-.09.18,0,.27S136.86,85.67,136.61,85.78Zm0,20c.14-.09.6-.18.41-.46C136.93,105.51,136.52,105.61,136.61,105.79Zm0-2.35c.14,0,.19-.09.19-.23S136.52,103.31,136.65,103.44Zm5.16-11.77c-1.65.35-2.37,1.44-3.82,2-1,1.51-2.25,3,.51,1.28,1.43.82-1.45.71-1.29,1.94-1.42.85,1.12-.15,1.47-.83.52.22.92-.7,1.2-1C141.09,94,144.43,92,141.81,91.67Zm-5.16-9.57c0-.3.31-.38.33,0C136.79,82.05,136.75,82.19,136.65,82.1Zm.33,1.61c0,.32-.14,0-.33,0C136.79,84.31,137.48,84,137,83.71Zm6,5.38c-.28-2.15-.89-.19-2.21.09.35,2-.66.08-.5,1.11-.07,0-1.68.67-.87-.19-.32-.22-.3.62-.56.33.44.84-.63,1.23-1.88,2.07-.55,2.41,1,.2,1.61.27.29-.83.31.16.78,0,.22-.79.06-.72.92-.78.5-.76.33-.1-.32-.51,1,.18.51-1,1.61-.87C142.48,89.72,142.81,90.08,143,89.09ZM137,102c-.11-.18,0-.34.18-.23C137.21,101.93,137.11,102,137,102Zm.46-20.19c0-.19.09-.33-.19-.28C137.27,80.76,138,81.6,137.44,81.78Zm.5,1.28c-.58.87-.47.34-.64,1C137.61,83.91,138.63,83.41,137.94,83.06Zm-.5,4.42c.18,0,.32,0,.32-.18S137.39,87.3,137.44,87.48Zm.27-1.79c0-.33.21-.23.33-.14C137.94,85.59,137.85,85.69,137.71,85.69Zm0,13.61c-.07.24.37.16.28,0A.29.29,0,0,0,137.76,99.3ZM138.86,81c-1.36.79-.74-.52.14-.41C139.09,80.9,138.54,80.81,138.86,81Zm-.87,1.8c0,.18.18.23.32.14C138.26,82.83,138.08,82.7,138,82.79Zm0,8.33c0,.13.09.13,0,.27C138.37,91.22,138.38,91.06,138,91.12Zm.09-6.17c.13-.32.55,0,.69.09C138.54,85.23,138.36,85,138.13,85Zm.18-1.29c0,.77.22.2.51,0C138.63,83.62,138.4,83.57,138.31,83.66Zm.23,11.18c-.33,0-.12-.19.05-.27S138.5,94.7,138.54,94.84Zm.28,5.38c-.14,0-.46.1-.32.14S138.84,100.59,138.82,100.22Zm-.23-4c-.37.29.46.63.46.09C138.77,96.45,138.77,96.31,138.59,96.22Zm-.09-12.83c.18.11.1-.19.27-.37C138.54,83,138.5,83.2,138.5,83.39Zm0,7.22c0,.09-.05.28,0,.28S138.89,90.72,138.5,90.61Zm.41,11c0-.18-.32-.13-.32-.36C138.82,101.07,139.08,101.42,138.91,101.6Zm-.28-14.72a.27.27,0,0,0,.28-.14C138.82,86.61,138.63,86.74,138.63,86.88ZM139.09,98c-.1.19-.59.17-.41.46C138.9,98.26,139.62,98.14,139.09,98Zm-.32-5.29c-.25.17.13.28.14,0C138.82,92.77,138.82,92.68,138.77,92.73Zm.6,2.11c-.12.61-.35-.06-.69-.09,1.1,0,.45-.7,1.19-.51C139.3,94.76,140.37,95,139.37,94.84Zm-.14-8.6c-.6.52-.28.07.05.46C140,86.52,139.72,86.41,139.23,86.24Zm-.41,16.7c0,.33.21.15.23,0A.2.2,0,0,0,138.82,102.94Zm0-15.78c-.06.17.17.19.19,0S139,87.11,138.86,87.16Zm.1-1.93c0-.24.14-.25.41-.28C139.37,85.23,139.18,85.27,139,85.23Zm.18,16.14c-.14,0-.32-.46,0-.5C139.05,101,139.33,101.55,139.14,101.37Zm-.18-7c.09-.15,0-.59.32-.5C139.32,94.14,139.2,94.27,139,94.38Zm.27,7.82c0,.14-.23.14-.23.32C139.36,102.47,139.59,102.49,139.23,102.2Zm1-8.74c-.35,0-.34.18-.5.55C138.61,93.75,141.19,92.69,140.24,93.46Zm-.87-5.06c.14,0,.18-.18.32-.05C139.69,88.17,139.32,88.26,139.37,88.4Zm.87-5.06c.45.56-1.67.32-.46-.14.34.59-.25-.46-.41-.5C140.14,82.06,142,82.51,140.24,83.34Zm-.82.74c.09-.23.36,0,.36.18C139.55,84.31,139.6,84.08,139.42,84.08Zm0,1.7c0,.14.18.18,0,.32C139.83,86.15,139.69,85.73,139.46,85.78Zm.37,15.32c-.58,0,0-.63,0-.92.49.08-.06.51,0,.69C140.48,100.92,140.08,100.86,139.83,101.1Zm-.09-16.66c.2-.27.16-.38.18,0C139.92,84.44,139.78,84.4,139.74,84.44Zm0-.32c0-.14.14-.18.23-.18S139.92,84.12,139.78,84.12Zm.51,1.57c-1,.77.38-.4-.09.55C140.45,86.16,140.9,86.11,140.29,85.69Zm-.32,9.7c-.22.36.34.72.37.23C140,95.76,140.15,95.49,140,95.39Zm0-2.53c0-.13.09-.09,0-.27C140.27,92.49,140.23,92.92,140,92.86Zm.46-8.6c-.5,0-.38-.38.09-.32C140.75,84.23,140.54,84.08,140.43,84.26Zm0,10.08c-.71-.24,0-.39.37-.23C140.7,94.38,140.57,94.11,140.47,94.34Zm-.27-6.4c.13,0,.41,0,.5-.18C140.47,87.57,140,87.67,140.2,87.94Zm0,1.56c0,.14-.13.28,0,.33C140.6,89.67,140.75,89.77,140.24,89.5Zm.23,7.83c-.36-.36-.08-.52.32-.23C140.79,97.28,140.47,97.14,140.47,97.33Zm.14,2.8c0,.14-.28,0-.23.09S140.69,100.24,140.61,100.13Zm1.29-6c.09.76-2,.77-1.15,1.38-.1-.81,1.16.09.51-.46C141.52,94.72,142.74,94.61,141.9,94.11Zm-1.24-1.2c-.06-.32.25-.18.27,0C140.84,93,140.79,92.86,140.66,92.91Zm.27-8.79c.17-.26,0-.05-.23-.14C140.71,83.53,141.54,84,140.93,84.12Zm0,7.23s-.18.27,0,.27C141.08,91.42,141.58,91.49,140.93,91.35Zm0,1.42c.08-.34.22-.4.46-.23C141.3,92.73,141.07,92.68,140.89,92.77Zm.55,3.82c.15.34-.29.11-.51.46C141.16,97.7,141.85,96.61,141.44,96.59ZM141.16,87c-.47.48.2.15.1.42C140.77,87.59,142.2,87.12,141.16,87Zm0,4c-.14.24.11.26.28.37C141.68,91.08,141.34,91.14,141.16,91Zm.55-1.25c-1.24.37.57-.23-.59-.23C141.4,89.22,141.84,89.17,141.71,89.73Zm-.5-9.7v-.19C141.39,79.77,141.41,80.1,141.21,80Zm0,12.28v-.23C141.35,92.17,141.5,92.29,141.21,92.31Zm0,1.93c0,.14.1.14.05.23C141.59,94.51,141.42,94.25,141.25,94.24Zm0-2.62c.1,0,.56,0,.56-.18S141.3,91.48,141.25,91.62Zm.51-6.9c-.86.2-.06.82.32.51C142.13,84.81,141.67,85.13,141.76,84.72Zm-.23,7.73c-.2-.15,0-.18.18-.18A.19.19,0,0,1,141.53,92.45Zm1-2.16c-2,.9,1,2,.28,0C142.82,90.43,142.54,90.33,142.54,90.29Zm-.69-4.19c.17-.29-.41-.37-.32.05C141.94,86.39,142.67,86.39,141.85,86.1Zm-.23,1.29c.09,0,.19,0,.23,0S141.53,87.62,141.62,87.39Zm0,7.87a.21.21,0,0,0,.33-.19A.19.19,0,0,0,141.62,95.26Zm.14.92a.21.21,0,0,0-.09.27C141.86,96.45,142,96.21,141.76,96.18Zm.05-6.72c0-.14.36-.37.36-.09A.91.91,0,0,1,141.81,89.46Zm0,2.67c0-.22.14-.11.23-.09S142,92.17,141.85,92.13Zm.23-5.52c-.36.68.23.16.51.46C142.48,86.67,142.57,86.83,142.08,86.61ZM142.36,97c-.05.23.28.18.23,0Z" transform="translate(-41.52 -74.02)"/><path d="M169.13,109.24c-6.39-2.38-26.52,3.41-12-3.22-.52-.65-1.1,1.11-1.79.69,3.19-4.53,1.07-12.42,1.56-18,.32-6.17,2.57-14.14-7-13,.95-1.67,7.55-.06,10.44-.73,3.21.2,7.26-1.17,10.22-.33-3,1-8.07,1.09-6.08,6.59-1.2,4.61.36,8.8-.5,13.2.28,1.41-.11,2.42.14,3.72.94-.53,3.5-.33,1.61.51.32-.22.49-.47,0-.6-3.15,1.11-.76,2.4-.83,5.48C161.67,109.5,174.31,107.78,169.13,109.24Zm-13-33.49s.14,0,.28,0C156.43,75.57,156.11,75.61,156.11,75.75Zm8.19,31.65c-1.45-2-.94-.6-3.5-.18.29-1.91,2.71-1.52,2.9-3.5-1.74,0-2.65,2.32-4.09,1.8,1-.78,2.48-1.65,3.31-2.21,3.54-5.39-10.28,5.35-3.22,2.39C153.59,109.06,163.59,108.45,164.3,107.4Zm-6.12-31.56c.39.3-1.94.54-.69,1C158,76.43,160,75.52,158.18,75.84Zm1.24.32c-.66.28-2.94,1.3-1.29,1.11C156.27,79.33,163.35,73.91,159.42,76.16ZM162.32,91c-.47,1.5-4,1.36-1.1.28-2.22,1.64,1.19-.37,2.11-.83-.44-.77-.82-.12-.09-1.33-1.8-.36-9,5.87-3.59,3.82a6.57,6.57,0,0,0-2.07,2.25c-.43,2,2.52-1.25.74.83.15.4-2.25,3.78.28,2.34.79-.23-2.68,3.56.18,2.72.95-1.66,7.42-6.27,1.65-3.36,1.78-1.52,2.95-1.65,2.86-4-1.55.2-1.68.18-.14-.27C163.48,91.92,163.52,91,162.32,91ZM157.58,75.7c-.3.32.17.24.28,0C157.77,75.75,157.63,75.75,157.58,75.7ZM163.29,99c-3.12.8-8.78,7.36-3.18,4.14C160.67,101.88,164.33,101.34,163.29,99Zm-.88-17.94c-1.13.71-2.77,2.57-3.72,2.53.77-.45,6.74-5.06,3.12-3-1.5,0,2.46-.78,1.52-2.3-1.93,1.54-7.67,5.37-2.44,2.71-3,1.16-3.88,4.43-2.3,4.83-1.22,1.44,2.88-2,4.47-2.25,1.46-3-3.25,2-4.56,2,.89-.88,5.79-4.06,3.82-3.45-.47.34-1.3,1-.78.18C162.52,82,164.9,79.91,162.41,81.09Zm.79,6.25c-2.28.54-6.84,4.21-4.7,4.24C158.59,90,162.37,89.45,163.2,87.34Zm-3.55-9.66c-.07.57-2.56.84-1.52,1.89C160.13,78.54,164.51,74.74,159.65,77.68Zm2.16,8.56c-1.59.1-2.26,1.62-2.66.69,3.16-2.24,4.3-3.36-.42-.69-1.35,1.61-.67,1.2.46,1.15-.64.41-2.15,2.51-.41,1.89.06-.31.4-.54.27,0,.31-.63.69-1.42,1.2-.69C159.56,88,165,84.9,161.81,86.24Zm-.5-10.35c-.43.59-4.15,2.38-2.76,2.3C158.44,77.65,162.88,75.67,161.31,75.89Zm-3.22,12.33c-.08.28.24.18.32,0C158.27,88.26,158.23,88.17,158.09,88.22Zm4.32-10.54c-1.33.56-4.43,1.59-4.14,4C159.21,81,164.67,75.87,162.41,77.68Zm-3.63,15.55c-.13-.18-.22-.29-.28,0C157.74,93.33,159.34,92,158.78,93.23Zm.27,5.2c-.69.07-.22-.56.14-.32C159.1,98.15,159.1,98.34,159.05,98.43Zm.33-2.76c-.29.64-.8.57-.51,0C159.33,95.62,160.52,95.27,159.38,95.67Zm3.82,1.79c-1.68,1-2.71,2.77-4.33,3.68C159.05,101.47,163.56,99.08,163.2,97.46Zm-4.15,1.34c-.46-.15-.2-.09.1-.19C159.1,98.66,159.05,98.66,159.05,98.8Zm.28-6c-.05.09,0,.14.09.14C159.28,93.28,158.82,92.73,159.33,92.77Zm-.23-5c.05-.23.46-.42.46-.05C159.38,87.57,159.38,87.8,159.1,87.76Zm.05,4.78c0-.2.57-.21.18-.18C160.1,91.91,159.93,92.56,159.15,92.54Zm.18-1.79c-.33.6.5,0,.69-.19C159.75,90.56,159.61,90.75,159.33,90.75Zm0,4.23c-.14-.14.18-.32.46-.28C159.79,95,159.47,94.89,159.33,95Zm.37-6.3c-.6.48-.2.12.32.23C160,88.72,159.79,88.77,159.7,88.68Zm0,9.15c-.16-.12-.26-.18-.19.14C158.87,97.67,161,96.78,159.7,97.83Zm-.14.65c0-.1.05-.14.05-.23C159.9,98.24,159.86,98.51,159.56,98.48Zm.28-5.52c-.09-.1-.28-.23-.19-.33S160,92.81,159.84,93Zm0-12.52c.18,0,.37,0,.32-.23A.35.35,0,0,0,159.84,80.44Zm.32,14.63c.35.21-.63.45-.09-.14C161.22,94.41,161.36,94.55,160.16,95.07Zm-.09,3.13a.33.33,0,0,0-.23,0C159.91,98,160.21,98,160.07,98.2Zm0-5.43c-.18-.54,0-.13.41-.23C160.43,92.73,160.21,92.73,160,92.77Zm-.09-2.48c-.09.33.44.16.55-.05C160.34,90.1,160.16,90.2,159.93,90.29Zm.18-6.58c-.09-.14.14-.28.28-.32C160.39,83.62,160.25,83.62,160.11,83.71Zm.28-.37c0-.28.28-.28.41-.41C161,83.24,160.59,83.21,160.39,83.34Zm0,13.76a.51.51,0,0,1,.42-.42C160.67,96.82,160.62,97,160.43,97.1Zm.42-17.44c0,.14-.32,0-.28.23C160.82,79.93,161,79.81,160.85,79.66Zm2.3,4.51c-.58.63-1.81,1.27-2.3,2.16C161.71,85.66,163.75,85.52,163.15,84.17ZM160.94,81c-.05-.29.21-.28.32-.14S161.08,81,160.94,81Zm.46,12.42c-.53,0-.19-.29.09-.32C161.54,93.32,161.45,93.37,161.4,93.46Zm-.32.88c.14,0,.32-.1.27.13S161.13,94.52,161.08,94.34Zm.37-3.13c-.3.2-.37-.48,0-.23C161.29,90.63,161.57,90.78,161.45,91.21Zm-.14-13.3c.23,0,.23-.14.37-.23C161.4,77.64,161.31,77.73,161.31,77.91Zm.18,12.84c0-.28.43-.13.42.09C161.72,90.7,161.68,90.79,161.49,90.75Zm0,3.54c.11-.32.24-.58.42-.14C161.72,94.15,161.72,94.34,161.49,94.29Zm.79-3.73c-.8,0-.07-.1.22-.41C162.79,90.48,162.18,90.14,162.28,90.56Zm-.42,13.21c0-.14.28,0,.18.18S162,103.77,161.86,103.77Zm.28-16.89c-.68.83,1,0,1.1-.41C162.74,86.28,162.64,86.93,162.14,86.88Zm0,8.88s0-.14,0-.23C162.41,95.49,162.32,95.85,162.18,95.76Zm.65,9.85c-.28-.23-.77.07-.23.18C161.63,106.87,165.2,103.78,162.83,105.61Zm-.46-10.26a.65.65,0,0,1,.5-.09C162.87,95.44,162.55,95.35,162.37,95.35Zm.13-2.95c-.09-.23.19-.09.24-.23C162.83,92.22,162.64,92.4,162.5,92.4Zm.65-4.23c-.22.12-.53.18-.65.6C162.79,88.7,163.42,88.46,163.15,88.17Zm.6-12.65a4.36,4.36,0,0,1-1,1.2C163.35,76.54,165.16,75.42,163.75,75.52Zm-.88,26a.69.69,0,0,0,.74-.51C163.38,100.82,162.87,101.1,162.87,101.47Zm.74,1.38c-.31.18-.57.17-.65.64C163.4,103.55,164,103.24,163.61,102.85Zm1.52-3.32c-1,.1.55-.74.41-.27C165.4,99.26,165.17,99.3,165.13,99.53Zm.32-.59c0-.19.14-.23.37-.23C165.77,98.89,165.54,98.89,165.45,98.94Z" transform="translate(-41.52 -74.02)"/><path d="M208,80.26c-1.33,22.34-1.11-2.73-9.89-5-5-.64-.77,7-2.26,10.63.49,7.93-.27,11.78-.18,18.12-.81,4.58,4.66,2.51,6.81,4.19-1.41,1.42-5.21.53-7.45.51-4.18-.07-10.32.52-14.45-.56,2.54-1.22,6.49.53,8.14-2.8.15-7.52.73-15.06-.59-22.18,2.6-12-6.22-8.62-9.3,1.38-2.49,9.73-.79-1.44.33-3.13-2.72.38-2.41,4.53-2.3,8-1.8-16-3.15-15.2,13.2-14.68,4.25.78,15.76-2.6,17.34.74.2,1.31,1.32.34,0,1.93C209.6,77.93,206.5,79.05,208,80.26ZM181.18,75.8c-1.56-.29-2.82,2.54-4.14,1.47.83.06,2-2.24-.14-1.38.33.56-.61,2.19.42,2.16.25.25.12.29-.19.18,0,1.51.39.21,1.89.46C177.24,78.43,181.21,76.36,181.18,75.8Zm-3.31,4.64c-.43.25-1.11.45-.88,1C177.17,81.11,178.27,80.79,177.87,80.44Zm-.74,1.06c.14,0,.28,0,.28-.14C177.22,81.36,177.18,81.41,177.13,81.5Zm3-2.3a33.21,33.21,0,0,1-2.67,2.53C177.66,82.86,181.57,79.13,180.08,79.2Zm-2.63,3a.1.1,0,1,1,0,.18Zm.05-4.47c0-.21.12-.07.32-.18C177.84,77.72,177.68,77.77,177.5,77.77ZM178,84c-.48,0,0-.45.32-.41C178.14,83.8,177.91,83.8,178,84Zm-.14.23c.09,0,.14.23.05.28S177.78,84.31,177.82,84.26Zm.05-7.18c-.09.28.32.28.23,0Zm0,1.15c.05-.13.14-.18.37-.13C178.19,78.19,178.05,78.37,177.91,78.23Zm.14,2.35c0,.18-.09.18-.09.28C178.24,81,178.45,80.67,178.05,80.58Zm.28,2.81c-.42,0-.19-.49.14-.33C178.42,83.2,178.14,83.16,178.33,83.39Zm0-7.59c-.21.21.25.26.19,0C178.47,75.84,178.47,75.8,178.37,75.8Zm.88,2.39c-.09.18.32.14.37,0C179.48,78.23,179.34,78.1,179.25,78.19Zm.27-.65c.28.15.08.22-.13.14C179.63,78.42,180.14,77.33,179.52,77.54Zm.14-1.74c-.37-.06-.21.28.05.27C179.71,75.93,179.62,75.93,179.66,75.8Zm.78,1.33c-.33.13-.59.05-.46.41C180.41,77.33,180.6,77.52,180.44,77.13Zm-.46.64a2.83,2.83,0,0,1,.6,0C180.49,77.54,180,77.5,180,77.77Zm.42-1.15c-.58,0,0-.79.18-.36C180.4,76.35,180.35,76.39,180.4,76.62Zm.23.23c0,.14.09.14,0,.28C180.92,77.12,180.92,76.78,180.63,76.85Zm.69-.46s.37.14.32,0C181.46,76.39,181.36,76.35,181.32,76.39Zm13.43,24.8c-1.13.93-.93,0,.19-.87-1.25.33.83-.75-.33-1.15-.57.21-3.6,2.54-1.52,1.74,1.36.12-2.69,1.25-3.45,3.82.81-.22.82-.58.79.42,1-.56.18.82-.46.55-4.31,4.92,1.85-1,2.8-.92.23-.62.53,0,.42-.69-.09.25,1.53-.82.73-.88C194.19,103.49,195.83,102,194.75,101.19Zm-6.58-19.87a.69.69,0,0,0,.32,0C188.54,81.18,188.17,81.18,188.17,81.32Zm.09-.23c.1.09.33,0,.33-.19S188.22,80.9,188.26,81.09Zm.92-5.62c-.89,2.18,1.31,1.08,2.07-.09C190.47,75.52,189.88,75.29,189.18,75.47Zm4,.28c-.86.38-1.77.32-.42,0-.73-1-4.55,2.11-3.31,2.94C190.44,77.1,192,77.37,193.19,75.75Zm1.06-.46c-1.48,2.34-4.09,2-5.07,4.69,2.74-1.58-1.29,1.34.74,1-1.74,1.47.42.71.83.83.11-.3.95-.91-.28-.14-.12-.72.34-1,1.06-.88a2.67,2.67,0,0,1,1.38-1.33C191.12,79.06,197.7,77,194.25,75.29Zm1.28,8.42c-.83.18-.45.11-1.28-.23,1,0,.62-.26,1.28-.78.42-2.74-2.17,1.56-1.7-.46-.38.3.63-.23.69-.14.22-.95.52.05-.69-.69.33-.45.32.39.92.09-.27-.75,1.25-.55.55-1.33-1.44,1.23-1.17.52-.09-.33.42-.72-.6,0-.78-.23.58-.28,1-.13.69-1-2.26.76-1.46,2.12-2.39,2.07a4.1,4.1,0,0,0-1.47.36c1.49.82-2,1.06-2.08,2.72,2.09,0,4.51-3.9,4.61-2-1.11.15-.34.49-1.16,1-.84-.24-.32.26-1.24.59.94-.56-3.2,2.71-1.88,2.21s2.17-1.18,2.3-2a2.56,2.56,0,0,0,1.56-.78c1.55,1.7-4.38,3.14-3.86,4.47.85-.57,1.42,0,2-.46,1.3-.31-.09-.75.46-1.39,1.62.12,0,.5.88.47C193.84,84.76,195.75,85.32,195.53,83.71Zm-5.7.27c0,.23-.32-.13-.46,0C189.64,84.33,190.12,84.21,189.83,84Zm-.41,21.44c0,.19.13.19.22.23A.18.18,0,0,0,189.42,105.42Zm5.29-17.71c-3.57,3.77-5.55,4.64-5.16,8.79,2.07.21-.66.71.37,1.56.79-1.28,1.52-1.39,1.56-2.3,1.19-.15,6.67-5.7,2.21-5C194.1,90.33,196.84,87.31,194.71,87.71Zm-2.08-.87c-.27-.85-4.09,2.71-2.62,2.07.31,0,1.37-.62,1-.78.66-.27.79.1,1.2-.47.7,0-.74.17-.69-.13C192.1,86.93,192.91,87.45,192.63,86.84ZM190,82.1c0,.32-.33,0-.37.27C190,82.38,190.45,82.21,190,82.1Zm4.23,15.69c-.32.83-.11-.23-.83.18-.18.53.86-.25.18.51-1.46-1,2.32-.87,1.43-2.44-1.17-.06-4,3.72-2.07,2.39.61.94-4,2-3.31,4.32C190,102.21,197,97.43,194.2,97.79Zm-1.89-9c-1.17.62-.83.15,0-.27-.77-.57-2.05,1.18-.87.69C187.43,92.57,191.57,91.68,192.31,88.81Zm-2.53-9.61c.14-.14-.14-.14-.09-.32C190.34,78.81,190.33,79.11,189.78,79.2ZM189.69,88c.14.18.23,0,.37-.09C189.92,87.76,189.78,87.94,189.69,88Zm3.22,8.32c-.1,1-4.26,2.68-2.85,3.5C190,99,193.73,97.06,192.91,96.31ZM190,102.62c-.19.13.13.32.18.23C190,102.85,190.15,102.57,190,102.62Zm.13,2.3c-.11.16-.28.32,0,.5C190.15,105.33,190.33,105,190.1,104.92Zm3.87,0c.1-.38-2.93,2.25-4,2.43-.21,1.05,1.62.36,1.79-.22-.18.48-.56-.21,0-.28C191.38,107.36,194.73,105.19,194,104.92ZM190,83.8c0,.18.41.28.46.14A.81.81,0,0,0,190,83.8Zm.18,3.17c-.24.06-.17-.33.09-.23C190.24,86.84,190.15,86.84,190.15,87Zm-.14.37c-.06.31.35.48.37.14A.47.47,0,0,0,190,87.34Zm.14,9.07c.26-.53,0-.31.41-.14C190.61,96.5,190.24,96.45,190.15,96.41Zm.14-19.28c0-.18.14-.14.14-.28C190.68,76.92,190.46,77.07,190.29,77.13Zm0,18.72c.2-.27.35-.28.37.1C190.56,96,190.33,96,190.33,95.85ZM190.56,79c-.34,0-.13-.8.23-.56C190.52,78.6,190.56,78.83,190.56,79Zm0,10.81c-.05-.19.14-.19.09-.33S190.29,89.78,190.52,89.83Zm-.09,12.88a.21.21,0,0,0,.36-.09C190.56,102.57,190.56,102.62,190.43,102.71Zm3.31-25.21c-.09,0-.09,0-.09-.14-1.35.92-3.52,3.52-2.76,1.1,1.75-.12,1.23-1.53,3.08-1.56C193.8,75.77,195.49,76.65,193.74,77.5Zm-3.13,3c.14,0,.18-.09.28,0S190.56,80.67,190.61,80.49Zm0,15.92c0-.23.23-.28.28-.42C191.23,96.23,191,96.72,190.61,96.41Zm.87,8c.29.38-.39.52-.78.41,0-.52.87-.29.23-.82C191.34,103.24,192.62,104.52,191.48,104.41Zm-.69-4.78c-.18.18.07.33.19.09C190.89,99.72,190.93,99.58,190.79,99.63Zm0-12.66c-.09.19.23.28.23.23S190.93,86.93,190.75,87Zm0,8.33c0-.44.27.06.51-.18C191.48,95.35,190.93,95.49,190.79,95.3ZM191,102c-.36.4-.07.17.27.23C191.42,101.89,191.24,102,191,102Zm-.19-13.39c0,.19.23.19.19,0S190.93,88.58,190.79,88.58Zm.1-8.23c0-.18,0-.23,0-.37C191.1,79.88,191.09,80.37,190.89,80.35Zm0,13.34c0-.14,0-.23.13-.23S191,93.69,190.89,93.69Zm.09-7.22c.09.14.41,0,.41.27C191.21,86.7,191,86.65,191,86.47Zm.32-3.54c-.34.07-.24.41,0,.23C191.16,83.16,191.3,83,191.3,82.93ZM191,92.08c.07-.15.26-.21.37-.28C191.39,92,191.21,92,191,92.08Zm0-15.55a.52.52,0,0,1,.37-.27A.32.32,0,0,1,191.07,76.53Zm.09,8.42c.23,0,.37.09.51-.09C191.48,84.67,191.16,84.72,191.16,85Zm1.71,17.53c.22.81-1,.94.36.69-.57,1.23-.94-.24-1.84.46C191.23,102.93,194.28,102,192.87,102.48ZM191.3,86c.14,0,.32,0,.37.23C191.53,86.15,191.25,86.24,191.3,86Zm.46,8.88c-.18-.2-.51.11-.28-.23C191.71,94.84,192.24,94.49,191.76,94.89Zm-.37-1.7c-.06-.34.09-.51.32-.14C191.58,93.05,191.39,93.05,191.39,93.19Zm.23,5.79c0,.09.33.19.33,0S191.67,98.8,191.62,99Zm.23-6c-.23,0,.14-.37-.18-.33C192,92.43,192.09,92.7,191.85,93Zm-.09-13.39c.11-.26.3-.33.51-.14C192.13,79.52,191.85,79.48,191.76,79.57Zm.78,14.54c-.36-.06-.44.42-.69-.14C192.51,94.19,192.7,93.24,192.54,94.11Zm1.06-2.67c-.59.09-.73,1-1.7,1C192.33,92.25,193.7,90.48,193.6,91.44ZM192,81.22c0-.3.35-.61.46-.23C192.17,81,192.27,81.22,192,81.22Zm.23,2.17c.19.23-.41.27-.09.41C192.27,83.65,192.71,83.71,192.22,83.39Zm.37,4.23c-.3.35-.67.48-.05.6C192.81,87.82,193.35,87.86,192.59,87.62Zm-.23,10c-.39-.1-.1.41,0,.18C192.36,97.79,192.36,97.74,192.36,97.65Zm-.14-12.06c-.05.14.05.14.05.28C192.49,85.82,192.5,85.53,192.22,85.59Zm.23-3.4a.19.19,0,0,0-.23,0C192.17,82.44,192.54,82.42,192.45,82.19ZM192.22,78c0,.14.05.14.19.14C192.45,77.91,192.36,77.91,192.22,78Zm.05,18.17c0,.51.78.14,1-.14C192.77,95.76,192.63,96,192.27,96.13Zm.82-12.51c-.06.41-.44-.18-.36.41C191.37,84.14,194.26,84.23,193.09,83.62ZM193,80c-.52.09-.48.22-.64.55C192.64,80.5,193.17,80.46,193,80Zm-.64,5c.23,0,.27-.23.51-.18C193,85.13,192.59,85,192.36,85Zm.78.74c0,1-1.37.33.09,1,.48-.14.05-.21,0-.46C193.53,85.91,193.71,86.12,193.14,85.78Zm-.32,2.44c0,.17-.29.26-.41.46C192.91,88.82,193.75,88,192.82,88.22Zm2.25,18.26a6.85,6.85,0,0,0-2.66,1.29C193.17,108.63,196.15,107.52,195.07,106.48Zm-2.48-2.39c0-.14.1-.15.23-.14S192.68,104.09,192.59,104.09Zm.23-3c-.1.09-.07.06,0,.19C193.05,101.26,193,101.1,192.82,101.05Zm2.58-15.41a5.5,5.5,0,0,0-2.58,2C193.92,87.05,195.37,87,195.4,85.64Zm-2.53-10.26c.15.08.27.23.32,0C193.09,75.38,192.87,75.29,192.87,75.38Zm.64,26.87c-1-.43,0-.77.64-.42C194.06,102.11,193.65,102.06,193.51,102.25Zm-.42-17.48c-.09-.14,0-.23.14-.23C193.23,84.67,193.23,84.81,193.09,84.77Zm0,.13c.09-.09.19,0,.19.14S193.14,85,193.14,84.9Zm.69,20.89c-.87-.37.3.82-.37.32C192.47,106.43,194.47,106.61,193.83,105.79Zm-.64-2.12c-.06-.3.31-.23.6-.27C193.69,103.58,193.46,103.63,193.19,103.67Zm.14,1.29c0,.19-.14.14-.14.28C193.43,105.27,193.66,105,193.33,105Zm.18-22.63c-.45-.22-.15-.14,0-.32C193.65,82.05,193.6,82.37,193.51,82.33Zm-.18,2.53c.14-.32.17-.23.32,0C193.65,85,193.37,84.86,193.33,84.86Zm.18-1.84c-.07-.2.09-.26.18-.19S193.65,83.06,193.51,83Zm0,12.37A1.24,1.24,0,0,0,195,94.2,4,4,0,0,0,193.51,95.39Zm.28,5.48c0-.14-.28-.09-.28-.28C194,100.74,194.49,100.69,193.79,100.87Zm-.24-21.16c.14,0,.14.09.24.09S193.51,79.94,193.55,79.71Zm.1,4.83c.14-.15.37.12.55-.33C194.75,84.58,193.93,84.74,193.65,84.54Zm.14,19.27c-.19,0-.19.23,0,.19Zm.5-11.18c-.43-.09-.55.56-.6,0C194,92.66,194.73,92.18,194.29,92.63Zm-.5-9.15c-.24-.23.36-.37.36-.09A.76.76,0,0,0,193.79,83.48Zm.13-4.65c.05,0,.19,0,.33,0C194.29,78.6,194,78.74,193.92,78.83Zm.23,4.88c-.18,0-.18-.09-.18-.19C194.15,83.46,194.24,83.57,194.15,83.71ZM194,103.58c0,.32,0,.42.28.23C194.06,103.81,194.15,103.54,194,103.58Zm1,1.34c.68-1.36-.6-1.59-1-.46,1.58-.08.36,1,.27,1.24C193.57,106.27,196,106.77,195,104.92Zm-.83-25.4c.28.09,0,.28,0,.46C194.06,79.84,194.15,79.66,194.15,79.52Zm.23,10.4c0,.32.33.24.46,0C194.71,89.78,194.57,90,194.38,89.92Zm.14-5.43c-.05-.14-.07-.51.19-.46C194.75,84.31,194.61,84.35,194.52,84.49Zm0,3c0,.32.23.09.42.19C194.94,87.43,194.66,87.39,194.52,87.48Zm.23,13.53c.14-.05.28-.05.23-.23C194.84,100.78,194.8,100.87,194.75,101Zm.65-17.76c-.19,0-.33.14-.23.23C195.34,83.21,195.63,83.75,195.4,83.25Zm.27,24.06c0,.44-.17.61.32.69C196.22,107.68,196.13,107.26,195.67,107.31Zm0-9.75c0,.27.23.27.41.23C196.08,97.56,195.9,97.56,195.67,97.56Zm4.74-21.81c.57.62,1.24-.06,1.7-.6C201.33,75.2,200.59,75.06,200.41,75.75Zm3.82-.69a3.23,3.23,0,0,0-2.76,1.47A7,7,0,0,0,204.23,75.06Zm2,0a11.11,11.11,0,0,0-3.59,2.44C203.31,77.37,208,75.35,206.21,75Zm-2,2.12c-.24.59-1.23.32-1.15,1.15C203.4,78.47,205.51,76.66,204.23,77.13Zm2.25,2.35c.36.89-2.29,1-1,.41,0,.17,1-.26.23-.37.45-.71-2.37.57,0,1.29C205.45,81.19,208.15,80,206.48,79.48Zm-1.56-2.86c0,.21.15.1.18.37C205.77,76.7,205.43,76.5,204.92,76.62Zm.23,2.53c.1.06.3-.08.32-.23A.36.36,0,0,0,205.15,79.15Zm1.1,1.75c-.26.43-1.55,1-.69,1.52C206,82.14,206.94,81.08,206.25,80.9Zm-.64-2c.18.27.69.14,1,.18C206.44,78.46,206.11,79,205.61,78.88Zm.14-.46c0,.14.13.09.23.14C206,78.37,205.88,78.37,205.75,78.42Zm.64,3.86c-.37,1-1.15,1.4.28,1.29C207.28,83.05,207.62,81,206.39,82.28Zm-.18-5.52c0,.32-.33.19-.37.42C206.29,77.36,206.42,77,206.21,76.76Zm-.14,8.93c.67.37.88-1,.83-1.57C206.11,84.31,205.65,84.86,206.07,85.69Zm.23-7.78c0,.09-.14.19-.19.28C206.43,78.22,206.65,78,206.3,77.91Zm-.14,5.84c0,.19.14.19.32.23C206.63,83.63,206.43,83.62,206.16,83.75Zm.6,2.58c-.17.13.16.87-.23.28C206.23,88.68,207.64,87.05,206.76,86.33Z" transform="translate(-41.52 -74.02)"/></svg>